<svg xmlns="http://www.w3.org/2000/svg" viewBox="0 0 800 500" width="100%" height="100%">
  <defs>
    <linearGradient id="algeriaSky" x1="0%" y1="0%" x2="0%" y2="100%">
      <stop offset="0%" stop-color="#38bdf8"/>
      <stop offset="100%" stop-color="#bae6fd"/>
    </linearGradient>
  </defs>
  <rect width="800" height="500" fill="url(#algeriaSky)"/>
  <rect x="50" y="200" width="700" height="300" fill="#f1f5f9"/>
  <!-- Grand European Architecture Arches -->
  <path d="M100 500 L100 320 Q 150 260 200 320 L200 500 Z" fill="#ffffff" stroke="#cbd5e1" stroke-width="2"/>
  <path d="M220 500 L220 320 Q 270 260 320 320 L320 500 Z" fill="#ffffff" stroke="#cbd5e1" stroke-width="2"/>
  <path d="M340 500 L340 320 Q 390 260 440 320 L440 500 Z" fill="#ffffff" stroke="#cbd5e1" stroke-width="2"/>
  <path d="M460 500 L460 320 Q 510 260 560 320 L560 500 Z" fill="#ffffff" stroke="#cbd5e1" stroke-width="2"/>
  <path d="M580 500 L580 320 Q 630 260 680 320 L680 500 Z" fill="#ffffff" stroke="#cbd5e1" stroke-width="2"/>
</svg>